<svg xmlns="http://www.w3.org/2000/svg">
    <symbol id="mobile" viewBox="0 0 43 63">
        <path d="M43 53.7C43 58.94 38.75 63.2 33.5 63.2L9.5 63.2C4.25 63.2 0 58.94 0 53.7L0 9.7C0 4.45 4.25 0.2 9.5 0.2L33.5 0.2C38.75 0.2 43 4.45 43 9.7L43 53.7ZM40 9.7C40 6.11 37.09 3.2 33.5 3.2L9.5 3.2C5.91 3.2 3 6.11 3 9.7L3 53.7C3 57.29 5.91 60.2 9.5 60.2L33.5 60.2C37.09 60.2 40 57.29 40 53.7L40 9.7Z" />
		<path d="M43 52.7C43 53.52 42.33 54.2 41.5 54.2L1.5 54.2C0.67 54.2 0 53.52 0 52.7L0 9.7C0 8.87 0.67 8.2 1.5 8.2L41.5 8.2C42.33 8.2 43 8.87 43 9.7L43 52.7ZM3 51.2L40 51.2L40 11.2L3 11.2L3 51.2Z" />
		<path d="M23.94 5.91C23.94 7.01 23.05 7.91 21.94 7.91C20.84 7.91 19.94 7.01 19.94 5.91C19.94 4.8 20.84 3.91 21.94 3.91C23.05 3.91 23.94 4.8 23.94 5.91Z" />
		<path d="M24.57 58.2L19.57 58.2C18.75 58.2 18.07 57.52 18.07 56.7C18.07 55.87 18.75 55.2 19.57 55.2L24.57 55.2C25.4 55.2 26.07 55.87 26.07 56.7C26.07 57.52 25.4 58.2 24.57 58.2Z" />
		<path d="M24.5 39.2L24.5 39.2C23.67 39.2 23 38.31 23 37.48C23.01 29.95 18.44 29.18 17.92 29.12C17.1 29.04 16.49 28.26 16.57 27.45C16.64 26.63 17.35 25.98 18.17 26.05C18.25 26.06 26.01 26.98 26 37.5C26 38.33 25.33 39.2 24.5 39.2Z" />
		<path d="M31.36 38.2L31.36 38.2C30.53 38.2 29.86 37.47 29.86 36.64C29.88 23.34 20.99 22.47 20.9 22.46C20.07 22.4 19.45 21.67 19.52 20.84C19.58 20.01 20.32 19.36 21.13 19.45C21.24 19.46 32.88 20.6 32.86 36.65C32.86 37.47 32.19 38.2 31.36 38.2Z" />
    </symbol>
    <symbol id="desktop" viewBox="0 0 63 52">
        <path d="M62.98 35.96C62.99 41.26 58.74 45.56 53.5 45.57L10.5 45.66C5.25 45.67 0.99 41.38 0.98 36.09L0.92 9.85C0.91 4.55 5.16 0.25 10.4 0.24L53.4 0.15C58.65 0.14 62.91 4.43 62.92 9.72L62.98 35.96ZM59.92 9.73C59.92 6.1 57 3.17 53.41 3.18L10.41 3.27C6.82 3.28 3.92 6.22 3.92 9.84L3.98 36.08C3.98 39.71 6.9 42.64 10.49 42.63L53.49 42.54C57.08 42.53 59.98 39.59 59.98 35.97L59.92 9.73Z" />
		<path d="M52.26 45.57L12.12 45.65C6.25 45.67 1.47 40.92 1.45 35.08C1.45 34.24 2.12 33.56 2.95 33.56L61.38 33.44C62.21 33.44 62.88 34.12 62.88 34.95C62.89 40.79 58.13 45.56 52.26 45.57ZM4.61 36.59C5.33 40.03 8.42 42.63 12.11 42.63L52.25 42.54C55.94 42.54 59.03 39.92 59.73 36.47L4.61 36.59Z" />
		<path d="M61.58 51.61L1.58 51.73C0.75 51.73 0.08 51.05 0.08 50.22C0.08 49.38 0.75 48.7 1.57 48.7L61.57 48.58C62.4 48.58 63.08 49.25 63.08 50.09C63.08 50.92 62.41 51.61 61.58 51.61Z" />
		<path d="M35.46 30.76C35.07 30.76 34.69 30.62 34.39 30.32C33.81 29.73 33.81 28.77 34.39 28.18L42.65 19.81C43.24 19.21 44.19 19.21 44.78 19.8C45.36 20.39 45.36 21.35 44.78 21.94L36.52 30.32C36.22 30.61 35.84 30.76 35.46 30.76Z" />
		<path d="M22.63 32.2C22.24 32.2 21.86 32.06 21.57 31.76C20.98 31.17 20.98 30.21 21.56 29.62L39.47 11.48C40.05 10.88 41 10.88 41.59 11.47C42.18 12.06 42.18 13.02 41.59 13.61L23.69 31.76C23.4 32.05 23.01 32.2 22.63 32.2Z" />
    </symbol>
    <symbol id="web" viewBox="0 0 55 63">
        <path d="M55 53.5C55 58.75 50.75 63 45.5 63L9.5 63C4.25 63 0 58.75 0 53.5L0 9.5C0 4.25 4.25 0 9.5 0L45.5 0C50.75 0 55 4.25 55 9.5L55 53.5ZM52 9.5C52 5.91 49.09 3 45.5 3L9.5 3C5.91 3 3 5.91 3 9.5L3 53.5C3 57.09 5.91 60 9.5 60L45.5 60C49.09 60 52 57.09 52 53.5L52 9.5Z" />
		<path d="M4.57 20L2.57 20C1.75 20 1.07 19.33 1.07 18.5C1.07 17.67 1.75 17 2.57 17L4.57 17C5.4 17 6.07 17.67 6.07 18.5C6.07 19.33 5.4 20 4.57 20Z" />
		<path d="M51.57 20L4.57 20C3.74 20 3.07 19.33 3.07 18.5C3.07 17.67 3.74 17 4.57 17L51.57 17C52.4 17 53.07 17.67 53.07 18.5C53.07 19.33 52.4 20 51.57 20Z" />
		<path d="M53.57 20L51.57 20C50.75 20 50.07 19.33 50.07 18.5C50.07 17.67 50.75 17 51.57 17L53.57 17C54.4 17 55.07 17.67 55.07 18.5C55.07 19.33 54.4 20 53.57 20Z" />
		<path d="M16.8 11.15C16.8 12.56 15.66 13.7 14.25 13.7C12.84 13.7 11.69 12.56 11.69 11.15C11.69 9.74 12.84 8.59 14.25 8.59C15.66 8.59 16.8 9.74 16.8 11.15Z" />
		<path d="M26 11.15C26 12.56 24.86 13.7 23.45 13.7C22.04 13.7 20.89 12.56 20.89 11.15C20.89 9.74 22.04 8.59 23.45 8.59C24.86 8.59 26 9.74 26 11.15Z" />
		<path d="M34.18 11.15C34.18 12.56 33.04 13.7 31.63 13.7C30.21 13.7 29.07 12.56 29.07 11.15C29.07 9.74 30.21 8.59 31.63 8.59C33.04 8.59 34.18 9.74 34.18 11.15Z" />
		<path d="M37.47 45.42C36.99 45.42 36.52 45.2 36.23 44.77C35.76 44.08 35.94 43.15 36.63 42.68L44.28 37.48L36.79 33.65C36.05 33.28 35.76 32.37 36.13 31.64C36.51 30.9 37.42 30.61 38.15 30.98L45.89 34.94C46.78 35.39 47.35 36.25 47.43 37.23C47.51 38.22 47.08 39.16 46.28 39.75L38.31 45.16C38.06 45.34 37.76 45.42 37.47 45.42Z" />
		<path d="M20.28 49.42C19.99 49.42 19.7 49.34 19.44 49.16L11.51 43.78C10.67 43.16 10.24 42.22 10.32 41.23C10.4 40.25 10.98 39.39 11.86 38.94L19.6 34.98C20.34 34.61 21.24 34.9 21.62 35.64C21.99 36.37 21.7 37.28 20.96 37.65L13.47 41.48L21.12 46.68C21.81 47.15 21.99 48.08 21.52 48.77C21.23 49.2 20.76 49.42 20.28 49.42Z" />
		<path d="M26 52.31C25.86 52.31 25.71 52.29 25.56 52.25C24.77 52 24.32 51.16 24.57 50.37L31.15 29.26C31.4 28.47 32.24 28.02 33.03 28.27C33.82 28.52 34.26 29.36 34.01 30.15L27.44 51.26C27.24 51.9 26.64 52.31 26 52.31Z" />
    </symbol>
    <symbol id="design" viewBox="0 0 64 60">
        <path d="M44.31 60L19.58 60C14.13 60 9.4 56.55 7.79 51.43L1.02 29.88C-0.16 26.13 0.5 22.17 2.81 19.02C5.15 15.83 8.79 14 12.8 14L51.09 14C55.08 14 58.72 15.83 61.07 19.02C63.39 22.19 64.05 26.16 62.88 29.93L56.09 51.48C54.5 56.58 49.77 60 44.31 60ZM12.8 17C9.76 17 7 18.38 5.23 20.79C3.48 23.17 2.99 26.15 3.88 28.99L10.66 50.53C11.87 54.4 15.45 57 19.58 57L44.31 57C48.45 57 52.03 54.42 53.23 50.58L60.01 29.03C60.9 26.19 60.4 23.19 58.65 20.8C56.88 18.38 54.12 17 51.09 17L12.8 17Z" />
		<path d="M47.5 16.5C46.67 16.5 46 15.83 46 15L46 9.5C46 5.92 42.66 3 39.07 3L24.07 3C20.49 3 18 5.92 18 9.5L18 15C18 15.83 17.33 16.5 16.5 16.5C15.67 16.5 15 15.83 15 15L15 9.5C15 4.26 18.84 0 24.07 0L39.07 0C44.31 0 49 4.26 49 9.5L49 15C49 15.83 48.33 16.5 47.5 16.5Z" />
    </symbol>
    <symbol id="ux_ui" viewBox="0 0 56 58">
        <path d="M56 47.95C56 53.2 51.75 57.45 46.5 57.45L9.5 57.45C4.25 57.45 0 53.2 0 47.95L0 10.95C0 5.71 4.25 1.45 9.5 1.45L46.5 1.45C51.75 1.45 56 5.71 56 10.95L56 47.95ZM53 10.95C53 7.36 50.09 4.45 46.5 4.45L9.5 4.45C5.91 4.45 3 7.36 3 10.95L3 47.95C3 51.54 5.91 54.45 9.5 54.45L46.5 54.45C50.09 54.45 53 51.54 53 47.95L53 10.95Z" />
		<path d="M41.5 56.95C40.67 56.95 40 56.28 40 55.45L40 3.45C40 2.63 40.67 1.95 41.5 1.95C42.33 1.95 43 2.63 43 3.45L43 55.45C43 56.28 42.33 56.95 41.5 56.95Z" />
		<path d="M28.5 56.95C27.67 56.95 27 56.28 27 55.45L27 3.45C27 2.63 27.67 1.95 28.5 1.95C29.33 1.95 30 2.63 30 3.45L30 55.45C30 56.28 29.33 56.95 28.5 56.95Z" />
		<path d="M15.5 56.95C14.67 56.95 14 56.28 14 55.45L14 3.45C14 2.63 14.67 1.95 15.5 1.95C16.33 1.95 17 2.63 17 3.45L17 55.45C17 56.28 16.33 56.95 15.5 56.95Z" />
		<path d="M53.57 31.45L28.57 31.45C27.75 31.45 27.07 30.78 27.07 29.95C27.07 29.13 27.75 28.45 28.57 28.45L53.57 28.45C54.4 28.45 55.07 29.13 55.07 29.95C55.07 30.78 54.4 31.45 53.57 31.45Z" />
    </symbol>
    <symbol id="animations" viewBox="0 0 63 52">
        <path d="M45 40.7C45 45.94 40.75 50.2 35.5 50.2L9.5 50.2C4.25 50.2 0 45.94 0 40.7L0 24.7C0 19.45 4.25 15.2 9.5 15.2L35.5 15.2C40.75 15.2 45 19.45 45 24.7L45 40.7ZM42 24.7C42 21.11 39.09 18.2 35.5 18.2L9.5 18.2C5.91 18.2 3 21.11 3 24.7L3 40.7C3 44.29 5.91 47.2 9.5 47.2L35.5 47.2C39.09 47.2 42 44.29 42 40.7L42 24.7Z" />
		<path d="M59.13 51.58C58.45 51.58 57.67 51.39 57.08 51.03L42.85 42.25C42.39 41.96 42.09 41.46 42.11 40.92L42.55 27.18C42.56 26.68 42.82 26.23 43.23 25.96L56.93 17.2C57.54 16.81 58.43 16.61 59.13 16.61C61.15 16.61 63 18.28 63 20.33L63 47.86C63 49.91 61.15 51.58 59.13 51.58ZM45.11 40.15L58.77 48.47C59.2 48.74 60 48.48 60 47.86L60 20.33C60 19.71 59.2 19.44 58.76 19.72L45.61 28.07L45.11 40.15Z" />
		<path d="M29.66 17.92C25.75 17.92 22.56 14.74 22.56 10.83C22.56 6.92 25.75 3.73 29.66 3.73C33.57 3.73 36.75 6.92 36.75 10.83C36.75 14.74 33.57 17.92 29.66 17.92ZM29.66 6.73C27.4 6.73 25.56 8.57 25.56 10.83C25.56 13.09 27.4 14.92 29.66 14.92C31.92 14.92 33.75 13.09 33.75 10.83C33.75 8.57 31.92 6.73 29.66 6.73Z" />
		<path d="M16.88 17.92C12.05 17.92 8.12 13.99 8.12 9.16C8.12 4.33 12.05 0.4 16.88 0.4C21.71 0.4 25.64 4.33 25.64 9.16C25.64 13.99 21.71 17.92 16.88 17.92ZM16.88 3.4C13.7 3.4 11.12 5.99 11.12 9.16C11.12 12.34 13.7 14.92 16.88 14.92C20.06 14.92 22.64 12.34 22.64 9.16C22.64 5.99 20.06 3.4 16.88 3.4Z" />
    </symbol>
</svg>